# xmcd CD database file
#
# Track frame offsets:
#	150
#	15934
#	34976
#	48079
#	61937
#	80058
#	90172
#	106628
#	120789
#	136917
#
# Disc length: 2097 seconds
#
# Revision: 0
# Processed by: cddbd v1.5.2PL0 Copyright (c) Steve Scherf et al.
# Submitted via: CDex 1.51
#
DISCID=64082f0a
DTITLE=Chip Taylor - Gasoline
DYEAR=1971
DGENRE=Country
TTITLE0=Londonderry Company
TTITLE1=Angel Of The Morning
TTITLE2=Home Again
TTITLE3=Lady Lisa
TTITLE4=Oh My Marie
TTITLE5=Gasoline
TTITLE6=Lightning (Don't Stay Mad With Me)
TTITLE7=Dirty Matthew
TTITLE8=You Didn't Get Here Last Night
TTITLE9=Swear To God, Your Honor
EXTD=YEAR: 1971
EXTT0=
EXTT1=
EXTT2=
EXTT3=
EXTT4=
EXTT5=
EXTT6=
EXTT7=
EXTT8=
EXTT9=
PLAYORDER=
